<svg xmlns="http://www.w3.org/2000/svg" width="24" height="24" viewBox="0 0 24 24" fill="none" stroke="currentColor" stroke-width="2" stroke-linecap="round" stroke-linejoin="round" class="lucide lucide-cloud-sun"><path d="M12 16.5V22"/><path d="m22 10-4.2-4.2"/><path d="M2 10.862 7.5 14"/><path d="M12 2a.5.5 0 0 1 .5.5v1a.5.5 0 0 1-1 0v-1A.5.5 0 0 1 12 2"/><path d="M4.2 10.2 3 9.5a.5.5 0 1 1 .5-1l1.2.8a.5.5 0 0 1-.5 1Z"/><path d="M17 4a4 4 0 0 0-8 0 .5.5 0 0 1-1 0A5 5 0 0 1 17 4Z"/><path d="M17.5 19.5a.5.5 0 1 0 0-1 .5.5 0 0 0 0 1Z"/><path d="M20.5 14.5a.5.5 0 1 0 0-1 .5.5 0 0 0 0 1Z"/><path d="M16 19h.01"/><path d="M19.5 17.5h.01"/><path d="M22 14h.01"/><path d="M22 11h.01"/><path d="M19.5 9.5h.01"/><path d="M16 8h.01"/><path d="M7 19h.01"/><path d="M4.5 17.5h.01"/><path d="M2 14h.01"/><path d="M2 11h.01"/><path d="M4.5 9.5h.01"/><path d="M7 8h.01"/><path d="M18 16.85A6 6 0 1 0 6.15 16.85h11.7Z"/></svg>